<svg width="71" height="14" viewBox="0 0 71 14" fill="none" xmlns="http://www.w3.org/2000/svg">
<path d="M4.08278 0.425911C4.71547 0.425911 5.26718 0.493189 5.73791 0.627745C6.20864 0.762302 6.58324 0.905755 6.86289 1.0581C7.14195 1.21045 7.3109 1.30942 7.36916 1.35502L6.39623 2.90075C6.31118 2.83458 6.16611 2.74229 5.96162 2.62274C5.75655 2.50375 5.5107 2.397 5.22348 2.30303C4.93627 2.20906 4.62517 2.16236 4.29018 2.16236C3.80605 2.16236 3.41921 2.24965 3.12966 2.4248C2.83953 2.59994 2.69505 2.85238 2.69505 3.1821C2.69505 3.40562 2.77195 3.60467 2.92634 3.77982C3.08073 3.95496 3.30793 4.11843 3.60855 4.27078C3.90917 4.42313 4.27736 4.58271 4.71314 4.75063C5.0959 4.89297 5.46176 5.05755 5.81015 5.24548C6.15854 5.43342 6.46964 5.65416 6.74346 5.9077C7.01727 6.1618 7.23516 6.45594 7.3977 6.79066C7.55966 7.12594 7.64122 7.50903 7.64122 7.94051C7.64122 8.42257 7.53869 8.84404 7.3342 9.20434C7.12913 9.56464 6.84774 9.86656 6.48886 10.1101C6.12999 10.3536 5.71927 10.5366 5.25669 10.6583C4.79412 10.7801 4.30766 10.8413 3.79673 10.8413C3.10519 10.8413 2.48474 10.764 1.93419 10.6088C1.38365 10.4543 0.938549 10.288 0.598318 10.1101C0.258086 9.93272 0.0582588 9.81818 0 9.76758L1.02128 8.16125C1.08536 8.20684 1.20596 8.28079 1.38423 8.38198C1.5625 8.48374 1.78039 8.58771 2.03848 8.69391C2.29656 8.80067 2.57795 8.89185 2.88381 8.96803C3.18967 9.0442 3.50194 9.08201 3.82119 9.08201C4.39563 9.08201 4.82907 8.96803 5.12153 8.73951C5.41399 8.51098 5.56022 8.21407 5.56022 7.84876C5.56022 7.57465 5.46701 7.33389 5.28116 7.12538C5.09473 6.91743 4.83315 6.72561 4.49525 6.55046C4.15735 6.37531 3.75478 6.19628 3.28696 6.0139C2.81914 5.82597 2.38395 5.60634 1.98255 5.35557C1.58114 5.10425 1.25781 4.79455 1.01312 4.42647C0.768433 4.05838 0.64609 3.60578 0.64609 3.06756C0.64609 2.52933 0.803971 2.07006 1.1209 1.67417C1.43724 1.27829 1.85729 0.971365 2.38104 0.75285C2.90478 0.53489 3.47281 0.425354 4.08394 0.425354L4.08278 0.425911Z" fill="#050505"/>
<path d="M9.69893 7.96275C9.71465 8.24687 9.79447 8.50097 9.93837 8.72394C10.0817 8.94746 10.2908 9.1226 10.5647 9.24938C10.8385 9.37615 11.1694 9.43953 11.558 9.43953C11.8982 9.43953 12.2 9.39894 12.4633 9.31777C12.7266 9.23659 12.9498 9.13762 13.1333 9.02085C13.3168 8.90409 13.4508 8.78732 13.5358 8.67056L14.3812 9.85043C14.2268 10.0334 14.0276 10.1996 13.7829 10.3492C13.5382 10.4987 13.2259 10.6183 12.8455 10.7073C12.4651 10.7962 11.9908 10.8407 11.4216 10.8407C10.7039 10.8407 10.0735 10.7061 9.53114 10.437C8.98875 10.1679 8.56463 9.77982 8.25877 9.27217C7.95291 8.76453 7.80027 8.16069 7.80027 7.46011C7.80027 6.85126 7.93718 6.30192 8.211 5.81207C8.48481 5.32221 8.88097 4.93522 9.39947 4.6511C9.91798 4.36697 10.5413 4.22463 11.2702 4.22463C11.9565 4.22463 12.5507 4.35029 13.0529 4.60161C13.5557 4.85293 13.9448 5.21935 14.2216 5.70197C14.4983 6.18404 14.6364 6.77287 14.6364 7.46845C14.6364 7.50904 14.6352 7.59299 14.6323 7.71977C14.6294 7.84654 14.623 7.92772 14.6125 7.9633H9.69834L9.69893 7.96275ZM12.7377 6.76731C12.7325 6.60495 12.6806 6.4298 12.5822 6.24187C12.4837 6.05393 12.3293 5.89436 12.1196 5.76202C11.9093 5.63025 11.6343 5.56408 11.2941 5.56408C10.9538 5.56408 10.6649 5.62858 10.4446 5.75813C10.2238 5.88768 10.059 6.04337 9.95002 6.2263C9.84108 6.40923 9.77583 6.58938 9.75485 6.76675H12.7383L12.7377 6.76731Z" fill="#050505"/>
<path d="M16.9015 10.6578H14.8752V4.40756H16.9015V5.42007H16.8618C16.8991 5.2983 17.0017 5.14373 17.1689 4.9558C17.3367 4.76786 17.5691 4.59939 17.8668 4.44926C18.1645 4.29969 18.5234 4.22463 18.9434 4.22463C19.2464 4.22463 19.5219 4.26633 19.769 4.35029C20.016 4.43425 20.1931 4.51654 20.2997 4.59772L19.5021 6.18126C19.4328 6.10008 19.3041 6.01612 19.1153 5.92994C18.9265 5.84376 18.6912 5.80039 18.4092 5.80039C18.0742 5.80039 17.7952 5.88768 17.5714 6.06283C17.3483 6.23798 17.1805 6.45093 17.0687 6.70225C16.9568 6.95357 16.9009 7.18821 16.9009 7.40673V10.6578H16.9015Z" fill="#050505"/>
<path d="M21.2091 2.79344C20.8741 2.79344 20.591 2.68168 20.3597 2.45872C20.1284 2.2352 20.0125 1.96886 20.0125 1.65916C20.0125 1.34946 20.1296 1.08034 20.3632 0.852377C20.5974 0.623853 20.8788 0.509869 21.2085 0.509869C21.4264 0.509869 21.6262 0.562135 21.8069 0.666111C21.9875 0.770086 22.1337 0.908535 22.2455 1.0809C22.3574 1.25327 22.4133 1.44621 22.4133 1.65972C22.4133 1.96942 22.2951 2.23575 22.0585 2.45927C21.822 2.68279 21.5389 2.794 21.2091 2.794V2.79344ZM20.1721 10.6578V4.40756H22.1902V10.6578H20.1721Z" fill="#050505"/>
<path d="M22.5095 4.40756H23.6898V2.71004C23.6898 2.09063 23.8174 1.58187 24.0725 1.18376C24.3277 0.785655 24.6575 0.488741 25.0618 0.293022C25.4661 0.0978593 25.8832 0 26.3143 0C26.841 0 27.2447 0.0683903 27.5267 0.205727C27.8087 0.342508 27.9811 0.441479 28.0452 0.502641L27.2634 1.93383C27.2366 1.89825 27.1637 1.84153 27.0437 1.76258C26.9243 1.68418 26.7658 1.6447 26.5689 1.6447C26.4303 1.6447 26.2951 1.67751 26.1623 1.74368C26.0294 1.80984 25.9199 1.93161 25.8354 2.10898C25.7504 2.28691 25.7079 2.54823 25.7079 2.89297V4.40812H27.423V6.01446H25.7079V10.6583H23.6898V6.01446H22.5095V4.40756Z" fill="#050505"/>
<path d="M30.6936 0.608285H33.5973C34.7193 0.608285 35.6462 0.822908 36.3774 1.2516C37.1085 1.68029 37.655 2.27301 38.0168 3.02919C38.3786 3.78538 38.5592 4.65054 38.5592 5.62524C38.5592 6.59994 38.3786 7.47289 38.0168 8.22908C37.655 8.98527 37.1085 9.57909 36.3774 10.0106C35.6462 10.442 34.7193 10.6578 33.5973 10.6578H30.6936V0.608285ZM32.6715 2.30637V8.96025H33.4213C34.1076 8.96025 34.6721 8.81679 35.1167 8.52989C35.5606 8.24298 35.8932 7.84876 36.114 7.34612C36.3348 6.84348 36.445 6.27523 36.445 5.64081C36.4502 5.00139 36.3436 4.43036 36.1257 3.92772C35.9078 3.42508 35.574 3.02919 35.1248 2.74006C34.6756 2.45093 34.1076 2.30637 33.4219 2.30637H32.6715Z" fill="#050505"/>
<path d="M40.226 2.79344C39.891 2.79344 39.6078 2.68168 39.3765 2.45872C39.1452 2.2352 39.0293 1.96886 39.0293 1.65916C39.0293 1.34946 39.1464 1.08034 39.38 0.852377C39.6142 0.623853 39.8956 0.509869 40.2254 0.509869C40.4433 0.509869 40.6425 0.562135 40.8237 0.666111C41.0043 0.770086 41.1505 0.908535 41.2624 1.0809C41.3742 1.25327 41.4302 1.44621 41.4302 1.65972C41.4302 1.96942 41.3119 2.23575 41.0754 2.45927C40.8388 2.68279 40.5557 2.794 40.226 2.794V2.79344ZM39.1884 10.6578V4.40756H41.2065V10.6578H39.1884Z" fill="#050505"/>
<path d="M47.2217 10.6578V9.56909C47.1739 9.68085 47.0516 9.8382 46.8546 10.0411C46.6577 10.2441 46.3932 10.4281 46.0612 10.5933C45.7285 10.7584 45.3393 10.8407 44.8925 10.8407C44.265 10.8407 43.7092 10.6972 43.2251 10.4103C42.741 10.1234 42.3623 9.73033 42.0885 9.23047C41.8147 8.73061 41.6778 8.16569 41.6778 7.53628C41.6778 6.90687 41.8147 6.34251 42.0885 5.84209C42.3623 5.34223 42.741 4.94746 43.2251 4.65833C43.7087 4.3692 44.2645 4.22463 44.8925 4.22463C45.3283 4.22463 45.7075 4.29469 46.0291 4.43369C46.3507 4.57326 46.6117 4.73561 46.8109 4.92077C47.0102 5.10592 47.1395 5.27217 47.1978 5.41952V4.40701H49.2077V10.6572H47.2217V10.6578ZM45.3865 14C44.9076 14 44.4491 13.9566 44.0104 13.8704C43.5718 13.7843 43.1738 13.6497 42.8179 13.4668C42.4613 13.2838 42.1636 13.0453 41.9248 12.7512L43.1535 11.5635C43.2653 11.7003 43.4098 11.8388 43.5881 11.9783C43.7663 12.1179 43.9935 12.2346 44.2703 12.3286C44.547 12.4226 44.8925 12.4693 45.3073 12.4693C45.7005 12.4693 46.0396 12.397 46.3245 12.2524C46.6088 12.1079 46.8296 11.9033 46.9869 11.6397C47.1436 11.3756 47.2223 11.0687 47.2223 10.7184V10.5432H49.2083V10.8324C49.2083 11.5224 49.0382 12.104 48.6979 12.576C48.3577 13.0481 47.9004 13.4034 47.326 13.6419C46.7515 13.8805 46.1054 14 45.3877 14H45.3865ZM43.6638 7.53628C43.6638 7.88657 43.7459 8.19461 43.9114 8.4615C44.0763 8.72783 44.2942 8.93467 44.5657 9.08201C44.8371 9.22936 45.1319 9.30275 45.4512 9.30275C45.7862 9.30275 46.0839 9.22769 46.3449 9.07812C46.6053 8.92855 46.8115 8.7206 46.963 8.45371C47.1145 8.18738 47.1902 7.88157 47.1902 7.53628C47.1902 7.19099 47.1145 6.88518 46.963 6.61885C46.8115 6.35252 46.6053 6.1429 46.3449 5.99055C46.0845 5.8382 45.7868 5.76202 45.4512 5.76202C45.1156 5.76202 44.8371 5.83709 44.5657 5.98666C44.2942 6.13623 44.0763 6.34473 43.9114 6.61106C43.7465 6.8774 43.6638 7.18599 43.6638 7.53628Z" fill="#050505"/>
<path d="M51.0662 2.79344C50.7312 2.79344 50.448 2.68168 50.2168 2.45872C49.9855 2.2352 49.8695 1.96886 49.8695 1.65916C49.8695 1.34946 49.9866 1.08034 50.2202 0.852377C50.4544 0.623853 50.7358 0.509869 51.0656 0.509869C51.2835 0.509869 51.4827 0.562135 51.6639 0.666111C51.8445 0.770086 51.9907 0.908535 52.1026 1.0809C52.2144 1.25327 52.2704 1.44621 52.2704 1.65972C52.2704 1.96942 52.1521 2.23575 51.9156 2.45927C51.679 2.68279 51.3959 2.794 51.0662 2.794V2.79344ZM50.0292 10.6578V4.40756H52.0472V10.6578H50.0292Z" fill="#050505"/>
<path d="M53.5305 4.40756V1.84209H55.5404V4.40756H57.0878V6.0139H55.5404V8.27523C55.5404 8.57492 55.5911 8.80678 55.6919 8.97192C55.7927 9.13706 55.9523 9.21935 56.1702 9.21935C56.3351 9.21935 56.4708 9.18766 56.5769 9.12427C56.6835 9.06088 56.747 9.0164 56.7685 8.99083L57.4863 10.3764C57.4542 10.407 57.3517 10.4604 57.1793 10.5366C57.0062 10.6127 56.7854 10.6822 56.5169 10.7456C56.2483 10.809 55.9465 10.8407 55.6115 10.8407C55.0103 10.8407 54.5133 10.6745 54.1201 10.342C53.7263 10.0095 53.5299 9.49291 53.5299 8.79288V6.0139H52.3496V4.40756H53.5305Z" fill="#050505"/>
<path d="M62.6725 10.6578V9.56909C62.6247 9.68085 62.5024 9.8382 62.3055 10.0411C62.1085 10.2441 61.844 10.4281 61.512 10.5933C61.1793 10.7584 60.7901 10.8407 60.3433 10.8407C59.7159 10.8407 59.1601 10.6972 58.6759 10.4103C58.1918 10.1234 57.8131 9.73033 57.5393 9.23047C57.2655 8.73061 57.1286 8.16569 57.1286 7.53628C57.1286 6.90687 57.2655 6.34251 57.5393 5.84209C57.8131 5.34223 58.1918 4.94746 58.6759 4.65833C59.1595 4.3692 59.7153 4.22463 60.3433 4.22463C60.7791 4.22463 61.1583 4.29469 61.4799 4.43369C61.8015 4.57326 62.0625 4.73561 62.2618 4.92077C62.461 5.10592 62.5903 5.27217 62.6486 5.41952V4.40701H64.6585V10.6572H62.6725V10.6578ZM59.1146 7.53628C59.1146 7.88657 59.1968 8.19461 59.3622 8.4615C59.5271 8.72783 59.745 8.93467 60.0165 9.08201C60.2879 9.22936 60.5827 9.30275 60.902 9.30275C61.237 9.30275 61.5347 9.22769 61.7957 9.07812C62.0561 8.92855 62.2623 8.7206 62.4138 8.45371C62.5653 8.18738 62.641 7.88157 62.641 7.53628C62.641 7.19099 62.5653 6.88518 62.4138 6.61885C62.2623 6.35252 62.0561 6.1429 61.7957 5.99055C61.5353 5.8382 61.2376 5.76202 60.902 5.76202C60.5664 5.76202 60.2879 5.83709 60.0165 5.98666C59.745 6.13623 59.5271 6.34473 59.3622 6.61106C59.1973 6.8774 59.1146 7.18599 59.1146 7.53628Z" fill="#050505"/>
<path d="M67.3868 10.6578H65.3524V0.181818H67.3868V10.6578Z" fill="#050505"/>
<path d="M69.6921 10.8407C69.3355 10.8407 69.0297 10.7189 68.7745 10.4754C68.5193 10.2319 68.3918 9.93995 68.3918 9.59967C68.3918 9.25938 68.5193 8.95246 68.7745 8.70892C69.0297 8.46539 69.3355 8.34362 69.6921 8.34362C70.0486 8.34362 70.3685 8.46539 70.6213 8.70892C70.8736 8.95246 71 9.24938 71 9.59967C71 9.94996 70.8736 10.2313 70.6213 10.4754C70.3685 10.7189 70.0591 10.8407 69.6921 10.8407Z" fill="#050505"/>
</svg>
